<?xml version="1.0" encoding="UTF-8"?>
<svg width="30px" height="43px" viewBox="0 0 30 43" version="1.1" xmlns="http://www.w3.org/2000/svg" xmlns:xlink="http://www.w3.org/1999/xlink">
    <!-- Generator: Sketch 48.2 (47327) - http://www.bohemiancoding.com/sketch -->
    <title>2</title>
    <desc>Created with Sketch.</desc>
    <defs></defs>
    <g id="project-page-black/white-" stroke="none" stroke-width="1" fill="none" fill-rule="evenodd" transform="translate(-2272.000000, -224.000000)">
        <g id="SECTION-2" transform="translate(1406.000000, 170.000000)" fill="#424242">
            <g id="section-number" transform="translate(820.000000, 40.000000)">
                <g id="firstnumber-">
                    <path d="M47.32,57 L47.32,50.04 L61.42,35.4 C63.88,32.88 65.68,30.42 65.68,27.96 C65.68,25.32 64,23.52 61.18,23.52 C58.24,23.52 56.14,25.44 55,28.08 L46.9,23.34 C49.6,17.1 55.24,14.16 61.06,14.16 C68.56,14.16 75.28,19.08 75.28,27.54 C75.28,32.58 72.58,36.9 68.74,40.74 L61.78,47.76 L75.88,47.76 L75.88,57 L47.32,57 Z" id="2"></path>
                </g>
            </g>
        </g>
    </g>
</svg>