<?xml version="1.0" encoding="UTF-8"?>
<svg width="31px" height="43px" viewBox="0 0 31 43" version="1.1" xmlns="http://www.w3.org/2000/svg" xmlns:xlink="http://www.w3.org/1999/xlink">
    <!-- Generator: Sketch 48.2 (47327) - http://www.bohemiancoding.com/sketch -->
    <title>3</title>
    <desc>Created with Sketch.</desc>
    <defs></defs>
    <g id="project-page-black/white-" stroke="none" stroke-width="1" fill="none" fill-rule="evenodd" transform="translate(-3440.000000, -225.000000)">
        <g id="SECTION-3" transform="translate(2573.000000, 170.000000)" fill="#424242">
            <g id="section-number" transform="translate(820.000000, 40.000000)">
                <g id="firstnumber-">
                    <path d="M68.26,32.04 C73.42,33.84 77.2,37.98 77.2,43.8 C77.2,53.04 70,57.84 61.9,57.84 C55.54,57.84 49.78,55.02 47.2,48.84 L55.48,44.04 C56.44,46.8 58.24,48.48 61.9,48.48 C65.86,48.48 67.6,46.38 67.6,43.8 C67.6,41.22 65.86,39.12 61.9,39.12 L59.92,39.12 L56.26,33.66 L63.88,24 L48.52,24 L48.52,15 L75.52,15 L75.52,22.8 L68.26,32.04 Z" id="3"></path>
                </g>
            </g>
        </g>
    </g>
</svg>