<?xml version="1.0" encoding="UTF-8"?>
<svg width="31px" height="43px" viewBox="0 0 31 43" version="1.1" xmlns="http://www.w3.org/2000/svg" xmlns:xlink="http://www.w3.org/1999/xlink">
    <!-- Generator: Sketch 48.2 (47327) - http://www.bohemiancoding.com/sketch -->
    <title>5</title>
    <desc>Created with Sketch.</desc>
    <defs></defs>
    <g id="project-page-black/white-" stroke="none" stroke-width="1" fill="none" fill-rule="evenodd" transform="translate(-1258.000000, -225.000000)">
        <g id="SECTION-1" transform="translate(240.000000, 170.000000)" fill="#424242">
            <g id="section-number" transform="translate(820.000000, 40.000000)">
                <g id="lastnumber-" transform="translate(151.000000, 0.000000)">
                    <path d="M63.1,29.76 C70.9,29.76 77.5,34.56 77.5,43.8 C77.5,53.04 70.3,57.84 62.2,57.84 C55.54,57.84 49.78,55.02 47.2,48.84 L55.48,44.04 C56.44,46.8 58.24,48.48 62.2,48.48 C66.16,48.48 67.9,46.38 67.9,43.8 C67.9,41.22 66.16,39.12 62.5,39.12 L49.36,39.12 L51.1,15 L75.4,15 L75.4,24 L60.1,24 L59.68,29.76 L63.1,29.76 Z" id="5"></path>
                </g>
            </g>
        </g>
    </g>
</svg>