<?xml version="1.0" encoding="UTF-8"?>
<svg width="1954px" height="1024px" viewBox="0 0 1954 1024" version="1.1" xmlns="http://www.w3.org/2000/svg" xmlns:xlink="http://www.w3.org/1999/xlink">
    <!-- Generator: Sketch 48.2 (47327) - http://www.bohemiancoding.com/sketch -->
    <title>BACKGROUND</title>
    <desc>Created with Sketch.</desc>
    <defs></defs>
    <g id="project-page-black/white-" stroke="none" stroke-width="1" fill="none" fill-rule="evenodd" opacity="0.391304348">
        <g id="BACKGROUND" transform="translate(792.500000, 316.000000) rotate(-270.000000) translate(-792.500000, -316.000000) translate(-107.000000, -845.000000)" stroke="#848484">
            <path d="M1784.50531,658.106348 C1794.58978,693.292296 1798.98818,730.726874 1797.94525,768.731748 C1796.93969,805.42241 1786.01846,843.157207 1760.67464,869.709136 C1742.01764,889.254741 1717.01142,901.409404 1691.91115,911.419127 C1584.14447,954.396309 1467.92824,977.545752 1352.0074,980.260988 C1314.96106,981.130298 1275.47679,979.163801 1245.03407,958.029083 C1149.90553,891.978418 1197.35224,732.28705 1238.75478,650.059505 C1272.11409,583.807488 1317.43877,521.201508 1380.63434,482.341792 C1459.06996,434.114991 1569.02499,441.202097 1647.97303,484.213038 C1718.96224,522.890693 1763.76244,585.736608 1784.50531,658.106348 Z" id="Stroke-1"></path>
            <path d="M1728.62038,664.499935 C1736.76609,692.919493 1740.31929,723.157247 1739.47651,753.854373 C1738.66387,783.490483 1729.84296,813.971788 1709.37138,835.417577 C1694.30133,851.20622 1674.10344,861.024237 1653.8296,869.108456 C1566.78166,903.822975 1472.90947,922.522178 1379.2772,924.715347 C1349.35414,925.415859 1317.46096,923.829157 1292.87191,906.757649 C1216.03264,853.406623 1254.35702,724.41841 1287.80073,657.9988 C1314.74452,604.48621 1351.3556,553.916734 1402.40133,522.528742 C1465.75484,483.573776 1554.57033,489.29844 1618.33861,524.04069 C1675.6793,555.280381 1711.86597,606.043975 1728.62038,664.499935 Z" id="Stroke-3"></path>
            <path d="M1683.17465,684.814294 C1689.7433,707.733449 1692.60805,732.117528 1691.92924,756.87417 C1691.27454,780.773558 1684.15971,805.354167 1667.65126,822.647524 C1655.49901,835.379718 1639.21,843.297551 1622.86071,849.817977 C1552.66364,877.811923 1476.96255,892.890409 1401.45316,894.660377 C1377.32228,895.22585 1351.60349,893.945397 1331.77334,880.177507 C1269.80879,837.154508 1300.71451,733.135139 1327.68361,679.57191 C1349.41274,636.41749 1378.93671,595.637094 1420.10052,570.324625 C1471.19207,538.910108 1542.81548,543.526734 1594.2398,571.544794 C1640.48081,596.736693 1669.66237,637.67383 1683.17465,684.814294 Z" id="Stroke-5"></path>
            <path d="M1628.63083,695.434825 C1633.30774,711.750359 1635.34658,729.111236 1634.8643,746.734955 C1634.39648,763.749795 1629.33254,781.249327 1617.58058,793.560731 C1608.92727,802.625185 1597.33206,808.261833 1585.69343,812.903779 C1535.71716,832.834002 1481.82478,843.567145 1428.06863,844.827102 C1410.88982,845.229806 1392.58006,844.318296 1378.46251,834.51716 C1334.34956,803.887553 1356.35118,729.834656 1375.55075,691.703183 C1391.02109,660.980737 1412.03885,631.948683 1441.3446,613.927083 C1477.71695,591.563757 1528.70722,594.84929 1565.3171,614.795187 C1598.23633,632.731183 1619.01054,661.874161 1628.63083,695.434825 Z" id="Stroke-7"></path>
            <path d="M1593.30405,702.313465 C1596.75477,714.353586 1598.25948,727.162945 1597.90259,740.167627 C1597.55897,752.723788 1593.8225,765.636837 1585.1487,774.721787 C1578.76451,781.411012 1570.20887,785.569471 1561.61946,788.994866 C1524.74312,803.701996 1484.97431,811.62224 1445.30798,812.553041 C1432.63004,812.849643 1419.11896,812.175657 1408.70292,804.943867 C1376.15143,782.341812 1392.38497,727.698276 1406.55316,699.559646 C1417.96873,676.888866 1433.47765,655.467191 1455.10308,642.168318 C1481.94317,625.665901 1519.56946,628.090564 1546.58438,642.808545 C1570.87562,656.043516 1586.2061,677.549589 1593.30405,702.313465 Z" id="Stroke-9"></path>
            <path d="M1552.61879,710.235276 C1554.65762,717.350113 1555.54743,724.920704 1555.33643,732.605837 C1555.13388,740.025716 1552.92503,747.655386 1547.7996,753.024369 C1544.02697,756.97786 1538.97026,759.436282 1533.89547,761.459447 C1512.10244,770.150134 1488.60093,774.830662 1465.16091,775.380461 C1457.6699,775.556493 1449.68455,775.158612 1443.52824,770.885611 C1424.2925,757.528865 1433.88626,725.235392 1442.25985,708.607581 C1449.00453,695.211047 1458.17026,682.551195 1470.94948,674.692442 C1486.81047,664.940739 1509.04478,666.374316 1525.01066,675.072237 C1539.36573,682.892408 1548.42415,695.600488 1552.61879,710.235276 Z" id="Stroke-11"></path>
            <path d="M1754.96565,1686.69457 C1754.34834,1742.14593 1751.01337,1796.18782 1745.97716,1847.04546 C1736.86327,1939.08861 1713.63064,2031.41992 1659.34399,2107.77811 C1590.79511,2204.20157 1480.07928,2264.34792 1365.26166,2292.86756 C1139.23267,2349.01098 899.443028,2329.75595 719.458521,2172.36506 C566.293608,2038.42745 389.904499,1688.93115 443.770359,1488.77769 C483.55123,1340.95644 653.179978,1472.63095 788.521025,1444.10288 C875.086679,1425.85581 952.343122,1375.73245 1016.1126,1314.41054 C1087.94701,1245.33597 1138.28017,1158.4496 1207.96843,1088.76014 C1331.84207,964.885297 1495.65813,970.236194 1604.02405,1109.884 C1723.34255,1263.64574 1757.21549,1484.54568 1754.96565,1686.69457 Z" id="Stroke-13"></path>
            <path d="M1613.28166,1728.47498 C1612.79697,1772.0321 1610.17698,1814.48118 1606.22108,1854.42844 C1599.06163,1926.72825 1580.81215,1999.25232 1538.17257,2059.23108 C1484.32721,2134.97075 1397.36126,2182.2137 1307.17368,2204.61561 C1129.63072,2248.7165 941.278653,2233.591 799.903076,2109.96212 C679.592287,2004.75634 541.041665,1730.23168 583.352095,1573.01441 C614.600226,1456.90187 747.840944,1560.33165 854.149937,1537.92251 C922.146603,1523.58914 982.830697,1484.217 1032.9203,1436.0517 C1089.34587,1381.79398 1128.88198,1313.54412 1183.62197,1258.80533 C1280.92318,1161.50292 1409.59791,1165.70599 1494.71793,1275.39697 C1588.44062,1396.17557 1615.04922,1569.68909 1613.28166,1728.47498 Z" id="Stroke-15"></path>
            <path d="M1497.35781,1754.93202 C1496.98163,1788.75673 1494.94641,1821.72178 1491.87549,1852.74323 C1486.31601,1908.88666 1472.14421,1965.20733 1439.03086,2011.78473 C1397.21718,2070.59999 1329.6835,2107.28824 1259.64679,2124.68529 C1121.77377,2158.93079 975.506671,2147.18606 865.720439,2051.18098 C772.293145,1969.48153 664.698875,1756.29687 697.55541,1634.20647 C721.821331,1544.03939 825.292107,1624.35831 907.846396,1606.95764 C960.650034,1595.82662 1007.77482,1565.25127 1046.67312,1527.84683 C1090.49068,1485.71243 1121.19383,1432.71347 1163.702,1390.2041 C1239.26202,1314.64287 1339.18562,1317.90791 1405.28693,1403.08942 C1478.06902,1496.88204 1498.7311,1631.62506 1497.35781,1754.93202 Z" id="Stroke-17"></path>
            <path d="M1353.63823,1781.24546 C1353.39589,1803.00352 1352.0877,1824.20938 1350.11156,1844.16492 C1346.53425,1880.28167 1337.41915,1916.51055 1316.11805,1946.47219 C1289.22008,1984.30706 1245.7763,2007.90744 1200.7241,2019.09875 C1112.03401,2041.1293 1017.94358,2033.57318 947.319693,1971.81601 C887.220363,1919.26075 818.008352,1782.12321 839.144275,1703.5851 C854.754475,1645.58249 921.313946,1697.25036 974.420215,1686.05664 C1008.38599,1678.89598 1038.70091,1659.2286 1063.72281,1635.16765 C1091.90967,1608.0623 1111.66024,1573.96993 1139.00431,1546.62465 C1187.61091,1498.01805 1251.8892,1500.11718 1294.41062,1554.91263 C1341.23037,1615.24707 1354.5208,1701.92486 1353.63823,1781.24546 Z" id="Stroke-19"></path>
            <path d="M1273.94543,1802.33472 C1273.77784,1817.40235 1272.87115,1832.08658 1271.50389,1845.90631 C1269.02617,1870.91736 1262.71433,1896.00556 1247.96259,1916.75446 C1229.33573,1942.95673 1199.2511,1959.3 1168.0512,1967.04903 C1106.63163,1982.30596 1041.47438,1977.07323 992.56757,1934.30463 C950.948006,1897.91057 903.017808,1802.94239 917.655008,1748.55446 C928.46411,1708.38656 974.556821,1744.16692 1011.33309,1736.41548 C1034.8563,1731.45643 1055.84874,1717.83684 1073.17706,1701.17407 C1092.69735,1682.40373 1106.37481,1658.79371 1125.31033,1639.85818 C1158.97107,1606.19745 1203.48431,1607.65152 1232.92992,1645.59732 C1265.35241,1687.37965 1274.55672,1747.40423 1273.94543,1802.33472 Z" id="Stroke-21"></path>
            <path d="M1221.58694,1812.32407 C1221.46757,1822.94628 1220.82976,1833.29843 1219.8652,1843.04048 C1218.11934,1860.67264 1213.6691,1878.35906 1203.26994,1892.98541 C1190.13866,1911.45673 1168.92919,1922.9772 1146.93601,1928.44143 C1103.63811,1939.19628 1057.70335,1935.50804 1023.22635,1905.3583 C993.885641,1879.701 960.0971,1812.75209 970.416688,1774.41203 C978.036713,1746.09375 1010.53033,1771.3182 1036.4553,1765.85397 C1053.0385,1762.35865 1067.83726,1752.75645 1080.05341,1741.01052 C1093.81286,1727.77796 1103.45485,1711.13327 1116.80557,1697.78496 C1140.53374,1674.05437 1171.9145,1675.08042 1192.67304,1701.83009 C1215.5295,1731.28534 1222.01737,1773.60059 1221.58694,1812.32407 Z" id="Stroke-23"></path>
            <path d="M1169.73592,1831.21256 C1169.67925,1836.28736 1169.37421,1841.23314 1168.91364,1845.88714 C1168.07929,1854.31016 1165.95364,1862.75971 1160.98495,1869.74795 C1154.7129,1878.57126 1144.58019,1884.07649 1134.07372,1886.68562 C1113.38873,1891.82432 1091.44378,1890.06158 1074.97271,1875.65708 C1060.95645,1863.39994 1044.81454,1831.41753 1049.74344,1813.10054 C1053.38465,1799.57258 1068.90804,1811.62235 1081.29299,1809.01201 C1089.21565,1807.34211 1096.28467,1802.75442 1102.12146,1797.1431 C1108.69494,1790.82161 1113.30072,1782.87002 1119.67766,1776.49307 C1131.01486,1765.15708 1146.00533,1765.64659 1155.92342,1778.42701 C1166.84345,1792.49753 1169.9421,1812.7123 1169.73592,1831.21256 Z" id="Stroke-25"></path>
            <path d="M519.695226,2.30795123 C391.810229,8.49319299 268.422492,12.8590332 163.20948,99.4560351 C47.6202125,194.594217 8.17934925,336.074689 1.77708145,483.299118 C-7.42964489,695.069498 36.9955828,913.605061 152.9972,1088.05782 C280.624178,1279.99443 537.311711,1448.50188 768.204496,1377.0123 C1068.34305,1284.08055 1212.94629,800.636986 1185.34902,511.047101 C1148.84283,127.973255 868.110016,-13.3372139 533.173748,1.67978145 C528.694572,1.88113337 524.202134,2.0897195 519.695226,2.30795123 Z" id="Stroke-27"></path>
            <path d="M532.83784,124.167221 C427.37766,129.267333 325.62983,132.868759 238.867647,204.278762 C143.547404,282.733671 111.023643,399.40204 105.743882,520.808811 C98.1515881,695.442421 134.786787,875.653599 230.445831,1019.51412 C335.691397,1177.79121 547.365321,1316.74935 737.767078,1257.79544 C985.271999,1181.16114 1104.51574,782.496383 1081.75815,543.691794 C1051.65544,227.794738 820.152569,111.26623 543.951984,123.649976 C540.257719,123.815157 536.555014,123.987572 532.83784,124.167221 Z" id="Stroke-29"></path>
            <path d="M544.269566,230.167556 C458.318819,234.32481 375.391969,237.259484 304.67886,295.459836 C226.991983,359.401732 200.483459,454.489274 196.181521,553.437468 C189.992662,695.766754 219.851826,842.641529 297.816015,959.891046 C383.591935,1088.8889 556.109541,1202.14153 711.290385,1154.09437 C913.011254,1091.63549 1010.19671,766.717385 991.649429,572.087238 C967.114637,314.625646 778.435826,219.652645 553.327991,229.745561 C550.318563,229.881805 547.29949,230.02046 544.269566,230.167556 Z" id="Stroke-31"></path>
            <path d="M555.039603,343.044239 C487.466138,346.312892 422.269108,348.619397 366.676686,394.375717 C305.599533,444.646179 284.760212,519.403206 281.377017,597.193774 C276.512017,709.091188 299.986999,824.562297 361.281177,916.740484 C428.717192,1018.15916 564.348814,1107.19529 686.348789,1069.42071 C844.938147,1020.31857 921.344571,764.870494 906.762833,611.856293 C887.474042,409.443352 739.136753,334.777959 562.160468,342.712672 C559.793679,342.818773 557.420861,342.928492 555.039603,343.044239 Z" id="Stroke-33"></path>
            <path d="M563.798653,411.24286 C511.173458,413.788093 460.397808,415.585792 417.102321,451.220259 C369.536245,490.370549 353.305109,548.591398 350.670654,609.175419 C346.882344,696.319809 365.164376,786.249366 412.89925,858.037958 C465.418343,937.02217 571.048528,1006.3644 666.062522,976.945313 C789.572034,938.704121 849.076954,739.762391 837.720464,620.594605 C822.69744,462.956545 707.174486,404.805627 569.344873,410.98484 C567.501358,411.068033 565.65302,411.153638 563.798653,411.24286 Z" id="Stroke-35"></path>
            <path d="M573.538419,487.071271 C537.532596,488.812302 502.792757,490.042116 473.171116,514.423785 C440.628063,541.208414 429.523565,581.041129 427.721043,622.491895 C425.127582,682.116179 437.635515,743.644263 470.295521,792.759664 C506.229003,846.799145 578.49867,894.24224 643.505199,874.114282 C728.007899,847.950589 768.720776,711.837893 760.950039,630.304832 C750.672651,522.452542 671.632978,482.666849 577.332757,486.895239 C576.072801,486.950701 574.808021,487.00978 573.538419,487.071271 Z" id="Stroke-37"></path>
            <path d="M579.218352,554.219486 C552.906358,555.492705 527.51793,556.390952 505.870789,574.207583 C482.087148,593.782125 473.97158,622.892549 472.654956,653.18456 C470.760801,696.758563 479.901214,741.722739 503.769254,777.616432 C530.028197,817.107935 582.843892,851.780254 630.35089,837.070712 C692.105646,817.949514 721.858708,718.478046 716.17986,658.894756 C708.668349,580.07452 650.906871,551.000266 581.991462,554.090476 C581.070307,554.131469 580.146741,554.174875 579.218352,554.219486 Z" id="Stroke-39"></path>
            <path d="M586.928322,625.707859 C573.771722,626.343263 561.079317,626.791783 550.254541,635.701907 C538.36272,645.488576 534.304333,660.044993 533.647227,675.189793 C532.699546,696.975589 537.26915,719.459485 549.204376,737.406332 C562.33445,757.152084 588.741695,774.486435 612.493988,767.132869 C643.371969,757.571667 658.247897,707.836536 655.409679,678.044891 C651.653923,638.635376 622.772582,624.098249 588.314877,625.642751 C587.855506,625.663248 587.392517,625.683745 586.928322,625.707859 Z" id="Stroke-41"></path>
        </g>
    </g>
</svg>