<?xml version="1.0" encoding="UTF-8"?>
<svg width="256px" height="214px" viewBox="0 0 256 214" version="1.1" xmlns="http://www.w3.org/2000/svg" xmlns:xlink="http://www.w3.org/1999/xlink">
    <!-- Generator: Sketch 49.3 (51167) - http://www.bohemiancoding.com/sketch -->
    <title>“</title>
    <desc>Created with Sketch.</desc>
    <defs></defs>
    <g id="variatie-op-about-pagina-" stroke="none" stroke-width="1" fill="none" fill-rule="evenodd">
        <g id="about-page--1" transform="translate(-866.000000, -430.000000)" fill="#FFFFFF">
            <path d="M1121.29492,430.066406 L1121.29492,466.6875 C1107.23235,470.398456 1096.5391,475.671841 1089.21484,482.507812 C1081.89059,489.343784 1076.03127,498.083931 1071.63672,508.728516 C1067.24217,519.3731 1065.04492,532.312424 1065.04492,547.546875 C1083.01376,547.546875 1096.34371,552.673777 1105.03516,562.927734 C1113.72661,573.181692 1118.07227,584.070255 1118.07227,595.59375 C1118.07227,609.265693 1113.28716,620.740188 1103.7168,630.017578 C1094.14644,639.294968 1083.01374,643.933594 1070.31836,643.933594 C1053.71671,643.933594 1039.50787,636.853586 1027.69141,622.693359 C1015.87494,608.533132 1009.9668,589.148561 1009.9668,564.539062 C1009.9668,542.859267 1014.65425,522.54697 1024.0293,503.601562 C1033.40434,484.656155 1046.14836,468.44538 1062.26172,454.96875 C1078.37508,441.49212 1098.05262,433.191422 1121.29492,430.066406 Z M978.033203,430.066406 L978.033203,466.6875 C963.970633,470.398456 953.27738,475.671841 945.953125,482.507812 C938.62887,489.343784 932.769553,498.083931 928.375,508.728516 C923.980447,519.3731 921.783203,532.312424 921.783203,547.546875 C939.947356,547.546875 953.326129,552.673777 961.919922,562.927734 C970.513715,573.181692 974.810547,584.070255 974.810547,595.59375 C974.810547,609.265693 970.025438,620.740188 960.455078,630.017578 C950.884718,639.294968 939.752017,643.933594 927.056641,643.933594 C910.650309,643.933594 896.490294,636.853586 884.576172,622.693359 C872.66205,608.533132 866.705078,589.148561 866.705078,564.539062 C866.705078,542.859267 871.392531,522.54697 880.767578,503.601562 C890.142625,484.656155 902.886638,468.44538 919,454.96875 C935.113362,441.49212 954.790899,433.191422 978.033203,430.066406 Z" id="“"></path>
        </g>
    </g>
</svg>